<svg width="512" height="304" viewBox="0 0 512 304" fill="none" xmlns="http://www.w3.org/2000/svg">
<path fill-rule="evenodd" clip-rule="evenodd" d="M0 48C0 21.4904 21.4904 0 48 0H464C490.51 0 512 21.4904 512 48V144C512 170.51 490.51 192 464 192H48C21.4904 192 0 170.51 0 144V48ZM112 128C129.673 128 144 113.673 144 96C144 78.3269 129.673 64 112 64C94.3269 64 80 78.3269 80 96C80 113.673 94.3269 128 112 128ZM240 96C240 113.673 225.674 128 208 128C190.326 128 176 113.673 176 96C176 78.3269 190.326 64 208 64C225.674 64 240 78.3269 240 96ZM304 128C321.674 128 336 113.673 336 96C336 78.3269 321.674 64 304 64C286.326 64 272 78.3269 272 96C272 113.673 286.326 128 304 128ZM432 96C432 113.673 417.674 128 400 128C382.326 128 368 113.673 368 96C368 78.3269 382.326 64 400 64C417.674 64 432 78.3269 432 96Z" fill="white"/>
<path fill-rule="evenodd" clip-rule="evenodd" d="M288 208C308.899 208 326.68 221.357 333.269 240H448C456.837 240 464 247.163 464 256V288C464 296.837 456.837 304 448 304C439.163 304 432 296.837 432 288V272H400V288C400 296.837 392.837 304 384 304C375.163 304 368 296.837 368 288V272H333.269C326.68 290.643 308.899 304 288 304C261.49 304 240 282.51 240 256C240 229.49 261.49 208 288 208ZM288 240C279.163 240 272 247.163 272 256C272 264.837 279.163 272 288 272C296.837 272 304 264.837 304 256C304 247.163 296.837 240 288 240Z" fill="white"/>
</svg>
